<svg xmlns="http://www.w3.org/2000/svg" xmlns:xlink="http://www.w3.org/1999/xlink" version="1.1" id="圖層_1" x="0px" y="0px" width="232px" height="48px" viewBox="0 0 232 48" enable-background="new 0 0 232 48" xml:space="preserve">
<g>
    <polygon fill="#FFFFFF" points="72.72,28.555 79.428,19.764 72.919,19.764 72.919,17.56 83.238,17.56 83.238,19.425 76.531,28.217    83.358,28.217 83.358,30.44 72.72,30.44  "/>
    <path fill="#FFFFFF" d="M85.422,26.907V17.56h3.096v9.348c0,0.582,0.189,0.982,0.565,1.201c0.378,0.217,1.029,0.327,1.955,0.327   c0.913,0,1.551-0.11,1.915-0.327c0.364-0.219,0.547-0.619,0.547-1.201V17.56h3.095v9.348c0,2.486-1.865,3.731-5.595,3.731   C87.28,30.639,85.422,29.394,85.422,26.907"/>
    <path fill="#FFFFFF" d="M98.936,30.281v-2.362c2.25,0.345,3.784,0.517,4.605,0.517c1.719,0,2.579-0.444,2.579-1.33v-0.833   c0-0.423-0.121-0.747-0.366-0.973c-0.246-0.225-0.685-0.337-1.32-0.337h-1.507c-2.832,0-4.248-1.125-4.248-3.374v-0.952   c0-1.126,0.469-1.953,1.409-2.481c0.938-0.528,2.427-0.794,4.465-0.794c1.059,0,2.401,0.087,4.029,0.258v2.302   c-1.999-0.238-3.375-0.357-4.129-0.357c-1.044,0-1.745,0.087-2.104,0.259c-0.383,0.186-0.576,0.477-0.576,0.873v0.913   c0,0.675,0.568,1.013,1.707,1.013h1.548c1.469,0,2.534,0.271,3.195,0.813c0.661,0.542,0.993,1.368,0.993,2.48v0.854   c0,1.533-0.549,2.573-1.647,3.115c-0.53,0.277-1.115,0.472-1.757,0.585c-0.642,0.111-1.413,0.17-2.312,0.17   C102.27,30.639,100.748,30.52,98.936,30.281"/>
    <path fill="#FFFFFF" d="M115.2,30.499c-0.603-0.093-1.229-0.251-1.875-0.476c-0.703-0.239-1.25-0.626-1.647-1.162   c-0.397-0.536-0.596-1.187-0.596-1.954v-5.636c0-0.635,0.142-1.204,0.427-1.708c0.285-0.502,0.652-0.898,1.101-1.189   c0.398-0.252,0.888-0.464,1.47-0.636c0.583-0.172,1.124-0.277,1.627-0.317c0.463-0.039,0.953-0.06,1.469-0.06   c0.607,0,1.139,0.023,1.589,0.069c0.449,0.047,0.951,0.143,1.507,0.288c0.635,0.185,1.157,0.41,1.568,0.675   c0.411,0.266,0.754,0.636,1.032,1.111c0.292,0.489,0.437,1.078,0.437,1.767v5.636c0,0.714-0.188,1.329-0.565,1.846   c-0.378,0.517-0.897,0.906-1.559,1.171c-1.191,0.476-2.527,0.715-4.009,0.715C116.46,30.639,115.801,30.592,115.2,30.499    M118.315,28.385c0.297-0.031,0.605-0.096,0.923-0.188s0.558-0.249,0.724-0.466c0.166-0.219,0.249-0.494,0.249-0.824V21.25   c0-0.606-0.245-1.04-0.736-1.298c-0.488-0.259-1.248-0.389-2.28-0.389s-1.793,0.127-2.282,0.378   c-0.49,0.251-0.735,0.688-0.735,1.309v5.657c0,0.33,0.086,0.605,0.259,0.824c0.172,0.217,0.423,0.374,0.754,0.466   c0.317,0.092,0.625,0.156,0.924,0.188c0.295,0.034,0.664,0.051,1.1,0.051C117.65,28.436,118.018,28.419,118.315,28.385"/>
    <path fill="#FFFFFF" d="M134.539,30.539c-0.569-0.066-1.131-0.18-1.687-0.337c-0.596-0.161-1.085-0.375-1.47-0.646   c-0.383-0.271-0.694-0.626-0.932-1.063c-0.239-0.463-0.356-0.992-0.356-1.587v-5.358c0-0.647,0.131-1.233,0.396-1.756   c0.264-0.523,0.621-0.937,1.071-1.241c0.424-0.277,0.93-0.515,1.52-0.714c0.588-0.198,1.167-0.33,1.735-0.396   c0.478-0.053,1.053-0.08,1.727-0.08c1.827,0,3.573,0.139,5.239,0.417v2.342c-1.535-0.37-3.281-0.557-5.239-0.557   c-2.236,0-3.353,0.649-3.353,1.946v5.18c0,0.634,0.3,1.084,0.902,1.349c0.602,0.264,1.511,0.397,2.729,0.397   c0.648,0,1.342-0.1,2.084-0.298v-2.996h-2.104v-2.026h5.062v6.689c-0.662,0.236-1.506,0.436-2.531,0.595   c-1.024,0.159-1.967,0.239-2.827,0.239C135.762,30.639,135.107,30.604,134.539,30.539"/>
    <path fill="#FFFFFF" d="M143.966,27.522v-3.453c0-1.204,0.386-2.076,1.161-2.619c0.773-0.542,1.967-0.813,3.582-0.813   c1.521,0,2.636,0.261,3.344,0.783c0.707,0.522,1.062,1.406,1.062,2.649v2.341h-6.231v0.874c0,0.554,0.197,0.952,0.595,1.19   c0.398,0.238,1.111,0.358,2.144,0.358c0.953,0,2.024-0.139,3.215-0.418v1.846c-1.178,0.252-2.435,0.378-3.771,0.378   C145.666,30.639,143.966,29.599,143.966,27.522 M150.356,24.764v-1.389c0-0.317-0.13-0.556-0.388-0.715   c-0.257-0.158-0.691-0.238-1.3-0.238c-0.702,0-1.171,0.08-1.409,0.238c-0.252,0.172-0.377,0.41-0.377,0.715v1.389H150.356z"/>
    <path fill="#FFFFFF" d="M155.337,20.834h2.858v1.172c0.224-0.913,1.25-1.369,3.075-1.369c1.23,0,2.094,0.221,2.59,0.664   s0.744,1.141,0.744,2.093v7.047h-2.897v-6.669c0-0.37-0.036-0.648-0.109-0.834c-0.073-0.185-0.218-0.316-0.437-0.396   c-0.217-0.079-0.553-0.119-1.002-0.119c-0.569,0-0.985,0.037-1.249,0.109c-0.266,0.073-0.444,0.202-0.537,0.387   c-0.092,0.186-0.14,0.47-0.14,0.854v6.669h-2.896V20.834z"/>
    <path fill="#FFFFFF" d="M166.867,27.522v-3.453c0-1.204,0.387-2.076,1.161-2.619c0.772-0.542,1.967-0.813,3.582-0.813   c1.521,0,2.637,0.261,3.344,0.783s1.062,1.406,1.062,2.649v2.341h-6.23v0.874c0,0.554,0.198,0.952,0.595,1.19   s1.111,0.358,2.144,0.358c0.952,0,2.024-0.139,3.214-0.418v1.846c-1.177,0.252-2.434,0.378-3.77,0.378   C168.567,30.639,166.867,29.599,166.867,27.522 M173.258,24.764v-1.389c0-0.317-0.129-0.556-0.388-0.715   c-0.258-0.158-0.692-0.238-1.3-0.238c-0.702,0-1.17,0.08-1.408,0.238c-0.253,0.172-0.377,0.41-0.377,0.715v1.389H173.258z"/>
    <path fill="#FFFFFF" d="M178.238,20.834h2.759v1.688c0-0.304,0.125-0.602,0.377-0.894c0.251-0.291,0.572-0.528,0.963-0.714   s0.777-0.277,1.161-0.277h1.032v2.4h-0.993c-0.821,0-1.425,0.126-1.815,0.378c-0.391,0.251-0.586,0.667-0.586,1.249v5.776h-2.897   V20.834z"/>
    <path fill="#FFFFFF" d="M186.822,30.39c-0.443-0.164-0.755-0.463-0.934-0.893c-0.179-0.431-0.268-1.075-0.268-1.936   c0-0.767,0.096-1.368,0.288-1.806c0.191-0.437,0.503-0.75,0.932-0.943c0.431-0.19,1.022-0.288,1.776-0.288h3.256V23.87   c0-0.409-0.058-0.714-0.169-0.912c-0.112-0.198-0.318-0.337-0.616-0.417c-0.297-0.079-0.744-0.119-1.339-0.119   c-0.821,0-1.945,0.08-3.374,0.238v-1.827c1.045-0.131,2.269-0.197,3.671-0.197c1.231,0,2.181,0.093,2.849,0.278   c0.667,0.186,1.147,0.504,1.438,0.952c0.292,0.45,0.437,1.105,0.437,1.965v6.609h-2.838v-0.874   c-0.226,0.384-0.528,0.653-0.913,0.813c-0.384,0.172-1.111,0.259-2.183,0.259C187.936,30.639,187.264,30.556,186.822,30.39    M191.217,28.771c0.187-0.024,0.314-0.065,0.388-0.117c0.073-0.055,0.135-0.14,0.188-0.26c0.053-0.093,0.08-0.23,0.08-0.417v-1.864   h-1.985c-0.451,0-0.768,0.03-0.953,0.09c-0.185,0.059-0.312,0.178-0.377,0.356c-0.066,0.18-0.1,0.493-0.1,0.942   c0,0.437,0.033,0.741,0.1,0.913c0.065,0.172,0.195,0.284,0.388,0.338c0.192,0.053,0.532,0.08,1.022,0.08   C190.549,28.833,190.966,28.813,191.217,28.771"/>
    <path fill="#FFFFFF" d="M200.882,30.578c-0.33-0.04-0.662-0.119-0.992-0.238c-0.37-0.12-0.672-0.285-0.902-0.496   c-0.232-0.211-0.421-0.502-0.565-0.872c-0.159-0.385-0.238-0.827-0.238-1.33v-5.021h-1.946v-1.787h1.946v-2.778h2.896v2.778h2.64   v1.787h-2.64v4.524c0,0.462,0.04,0.81,0.118,1.042c0.081,0.23,0.233,0.396,0.457,0.496c0.226,0.099,0.569,0.149,1.032,0.149   c0.185,0,0.529-0.033,1.032-0.1v1.805c-0.622,0.066-1.157,0.101-1.608,0.101C201.623,30.639,201.212,30.618,200.882,30.578"/>
    <path fill="#FFFFFF" d="M205.467,17.361h2.897v2.342h-2.897V17.361z M205.467,20.833h2.897v9.605h-2.897V20.833z"/>
    <path fill="#FFFFFF" d="M214.119,30.578c-0.385-0.039-0.794-0.119-1.23-0.237c-0.476-0.132-0.86-0.321-1.15-0.566   c-0.292-0.245-0.536-0.592-0.734-1.041c-0.199-0.438-0.298-0.966-0.298-1.588v-2.838c0-0.636,0.099-1.191,0.298-1.667   c0.198-0.477,0.456-0.848,0.773-1.112c0.277-0.225,0.646-0.413,1.103-0.564c0.456-0.152,0.902-0.248,1.339-0.288   c0.502-0.027,0.958-0.039,1.369-0.039c0.608,0,1.094,0.016,1.458,0.049s0.764,0.115,1.202,0.248   c0.475,0.146,0.863,0.345,1.159,0.595c0.299,0.253,0.554,0.608,0.766,1.072c0.198,0.477,0.297,1.045,0.297,1.707v2.838   c0,0.596-0.097,1.117-0.287,1.567c-0.192,0.45-0.44,0.801-0.745,1.053c-0.264,0.224-0.624,0.406-1.082,0.545   c-0.456,0.139-0.903,0.229-1.339,0.268c-0.396,0.04-0.873,0.06-1.429,0.06C214.992,30.638,214.503,30.618,214.119,30.578    M216.817,28.703c0.277-0.085,0.473-0.222,0.586-0.408c0.113-0.185,0.169-0.455,0.169-0.813v-3.631c0-0.53-0.139-0.9-0.417-1.112   c-0.277-0.212-0.801-0.317-1.567-0.317c-0.769,0-1.29,0.105-1.568,0.317c-0.276,0.212-0.416,0.582-0.416,1.112v3.631   c0,0.357,0.057,0.628,0.168,0.813c0.112,0.187,0.308,0.323,0.585,0.408c0.278,0.086,0.688,0.13,1.231,0.13   C216.129,28.833,216.54,28.789,216.817,28.703"/>
    <path fill="#FFFFFF" d="M222.731,20.834h2.858v1.172c0.225-0.913,1.251-1.369,3.076-1.369c1.229,0,2.093,0.221,2.59,0.664   c0.496,0.443,0.744,1.141,0.744,2.093v7.047h-2.897v-6.669c0-0.37-0.036-0.648-0.109-0.834c-0.072-0.185-0.219-0.316-0.437-0.396   c-0.218-0.079-0.553-0.119-1.003-0.119c-0.568,0-0.984,0.037-1.25,0.109c-0.265,0.073-0.444,0.202-0.536,0.387   c-0.093,0.186-0.138,0.47-0.138,0.854v6.669h-2.898V20.834z"/>
</g>
                                    <g>
                                        <path fill="#00A89C" d="M10.871,44.396h9.052l-3.073-5.324l-2.908,0.003L6.147,25.227l7.461-12.923   c2.209,0.133,4.415-0.954,5.596-2.999c1.663-2.882,0.672-6.579-2.209-8.243c-2.881-1.665-6.579-0.673-8.243,2.208   C7.562,5.333,7.735,7.81,8.985,9.663L0,25.226L10.871,44.396z M12.599,8.678c-0.979-0.565-1.478-1.644-1.359-2.702   c0.041-0.365,0.153-0.729,0.349-1.068c0.761-1.317,2.452-1.771,3.77-1.009c0.786,0.453,1.255,1.239,1.352,2.079   c0.042,0.375,0.014,0.757-0.102,1.129c-0.06,0.192-0.136,0.38-0.241,0.561c-0.105,0.182-0.23,0.341-0.366,0.49   C15.146,9.083,13.735,9.334,12.599,8.678"/>
                                        <path fill="#034EA1" d="M33.281,44.521L47.051,20.67l-2.921-5.064l-0.513,0H26.394l6.999-12.124L27.246,3.48l-13.77,23.851   l2.921,5.063l0.514,0.001h17.223l-7,12.122L33.281,44.521z M40.756,20.925l-3.549,6.148l-17.437,0.002l3.549-6.147L40.756,20.925z"/>
                                        <path fill="#00ADEE" d="M43.532,46.939c2.881,1.662,6.579,0.672,8.243-2.21c1.19-2.062,1.016-4.538-0.232-6.393l8.985-15.562   L49.657,3.606l-9.053-0.001l3.073,5.324l2.907-0.002l7.795,13.848l-7.46,12.923c-2.211-0.134-4.416,0.952-5.597,2.999   C39.66,41.577,40.65,45.275,43.532,46.939 M45.17,44.102c-0.787-0.453-1.256-1.24-1.353-2.078   c-0.042-0.374-0.014-0.757,0.102-1.128l0.606-1.052c0.855-0.926,2.267-1.178,3.404-0.521c0.978,0.565,1.476,1.643,1.358,2.702   c-0.042,0.365-0.154,0.729-0.35,1.066C48.178,44.41,46.487,44.861,45.17,44.102"/>
                                    </g>
</svg>